<svg viewBox="0 0 106 54" xmlns="http://www.w3.org/2000/svg" xmlns:xlink="http://www.w3.org/1999/xlink" width="106.000000" height="54.000000" fill="none" customFrame="#000000">
	<path id="Britlex" d="M63.5285 12.96L63.5285 39.6L60.2525 39.6L60.2525 12.96L63.5285 12.96ZM87.1118 28.98C87.1118 29.604 87.0758 30.264 87.0038 30.96L71.2358 30.96C71.3558 32.904 72.0158 34.428 73.2158 35.532C74.4398 36.612 75.9158 37.152 77.6438 37.152C79.0598 37.152 80.2358 36.828 81.1718 36.18C82.1318 35.508 82.8038 34.62 83.1878 33.516L86.7158 33.516C86.1878 35.412 85.1318 36.96 83.5478 38.16C81.9638 39.336 79.9958 39.924 77.6438 39.924C75.7718 39.924 74.0918 39.504 72.6038 38.664C71.1398 37.824 69.9878 36.636 69.1478 35.1C68.3078 33.54 67.8878 31.74 67.8878 29.7C67.8878 27.66 68.2958 25.872 69.1118 24.336C69.9278 22.8 71.0678 21.624 72.5318 20.808C74.0198 19.968 75.7238 19.548 77.6438 19.548C79.5158 19.548 81.1718 19.956 82.6118 20.772C84.0518 21.588 85.1558 22.716 85.9238 24.156C86.7158 25.572 87.1118 27.18 87.1118 28.98ZM83.7278 28.296C83.7278 27.048 83.4518 25.98 82.8998 25.092C82.3478 24.18 81.5918 23.496 80.6318 23.04C79.6958 22.56 78.6518 22.32 77.4998 22.32C75.8438 22.32 74.4278 22.848 73.2518 23.904C72.0998 24.96 71.4398 26.424 71.2718 28.296L83.7278 28.296ZM101.732 39.6L97.0521 32.256L92.5521 39.6L89.1321 39.6L95.5041 29.808L89.1321 19.872L92.8401 19.872L97.5201 27.18L101.984 19.872L105.404 19.872L99.0681 29.628L105.44 39.6L101.732 39.6Z" fill="rgb(146.625,146.625,146.625)" fill-rule="nonzero" />
	<path id="Britlex" d="M15.336 26.676C16.248 26.82 17.076 27.192 17.82 27.792C18.588 28.392 19.188 29.136 19.62 30.024C20.076 30.912 20.304 31.86 20.304 32.868C20.304 34.14 19.98 35.292 19.332 36.324C18.684 37.332 17.736 38.136 16.488 38.736C15.264 39.312 13.812 39.6 12.132 39.6L2.772 39.6L2.772 14.508L11.772 14.508C13.476 14.508 14.928 14.796 16.128 15.372C17.328 15.924 18.228 16.68 18.828 17.64C19.428 18.6 19.728 19.68 19.728 20.88C19.728 22.368 19.32 23.604 18.504 24.588C17.712 25.548 16.656 26.244 15.336 26.676ZM6.048 25.344L11.556 25.344C13.092 25.344 14.28 24.984 15.12 24.264C15.96 23.544 16.38 22.548 16.38 21.276C16.38 20.004 15.96 19.008 15.12 18.288C14.28 17.568 13.068 17.208 11.484 17.208L6.048 17.208L6.048 25.344ZM11.844 36.9C13.476 36.9 14.748 36.516 15.66 35.748C16.572 34.98 17.028 33.912 17.028 32.544C17.028 31.152 16.548 30.06 15.588 29.268C14.628 28.452 13.344 28.044 11.736 28.044L6.048 28.044L6.048 36.9L11.844 36.9ZM28.1261 23.076C28.7021 21.948 29.5181 21.072 30.5741 20.448C31.6541 19.824 32.9621 19.512 34.4981 19.512L34.4981 22.896L33.6341 22.896C29.9621 22.896 28.1261 24.888 28.1261 28.872L28.1261 39.6L24.8501 39.6L24.8501 19.872L28.1261 19.872L28.1261 23.076ZM39.9718 16.668C39.3478 16.668 38.8198 16.452 38.3878 16.02C37.9558 15.588 37.7398 15.06 37.7398 14.436C37.7398 13.812 37.9558 13.284 38.3878 12.852C38.8198 12.42 39.3478 12.204 39.9718 12.204C40.5718 12.204 41.0758 12.42 41.4838 12.852C41.9158 13.284 42.1318 13.812 42.1318 14.436C42.1318 15.06 41.9158 15.588 41.4838 16.02C41.0758 16.452 40.5718 16.668 39.9718 16.668ZM41.5558 19.872L41.5558 39.6L38.2798 39.6L38.2798 19.872L41.5558 19.872ZM51.1352 22.572L51.1352 34.2C51.1352 35.16 51.3392 35.844 51.7472 36.252C52.1552 36.636 52.8632 36.828 53.8712 36.828L56.2832 36.828L56.2832 39.6L53.3312 39.6C51.5072 39.6 50.1392 39.18 49.2272 38.34C48.3152 37.5 47.8592 36.12 47.8592 34.2L47.8592 22.572L45.3032 22.572L45.3032 19.872L47.8592 19.872L47.8592 14.904L51.1352 14.904L51.1352 19.872L56.2832 19.872L56.2832 22.572L51.1352 22.572Z" fill="rgb(0,0,0)" fill-rule="nonzero" />
</svg>
